<?xml version="1.0" encoding="UTF-8"?><svg id="Layer_1" xmlns="http://www.w3.org/2000/svg" viewBox="0 0 918 324"><defs><style>.cls-1{fill:#01a25f;stroke-width:0px;}</style></defs><path class="cls-1" d="M175.82,16.31c30.33,0,60.67-.1,91,.03,31.46.14,59.46,22.44,66.69,53.02.91,3.86,1.48,7.9,1.48,11.86.07,53.5.29,107-.12,160.49-.25,32.95-26.14,61.11-58.93,65.22-4.11.52-8.29.76-12.44.76-58.83.05-117.66.05-176.5.04-36.37,0-64.06-22.57-71.19-58.07-.62-3.07-.85-6.27-.85-9.42,0-52.17-.11-104.33.18-156.5.18-32.66,26.83-62.26,59.29-66.42,5.58-.71,11.25-.99,16.88-1.01,28.17-.1,56.33-.05,84.5-.05v.04ZM175.51,283.49v-.02c30.66,0,61.32-.39,91.97.12,24.15.4,44.37-21.74,44.15-44.05-.5-51.98-.54-103.97.08-155.95.27-23.18-22.65-43.78-43.69-43.71-61.31.21-122.63.28-183.95-.04-21.35-.11-45.37,17.86-45.73,44.88-.69,51.64-.43,103.3-.05,154.95.18,24.4,20.8,43.8,45.25,43.81,30.66.01,61.32,0,91.97,0Z"/><path class="cls-1" d="M877.2,139.17c-.32-6.23,3.23-7.67,7.61-7.74,19.63-.31,18.29-.21,18.19,16.59-.15,26.83.15,53.65-.09,80.48-.14,15.67-2.94,30.7-12.95,43.55-14.73,18.91-34.51,24.99-57.49,22.42-10.67-1.19-20.64-4.75-29.48-11.15-6.39-4.62-7.45-7.85-4.46-15.23.88-2.16,1.82-4.29,2.71-6.43,2.51-6.02,6.93-7.48,12.26-3.64,8.21,5.92,17.25,9.3,27.34,9.37,20.96.13,33.13-13.43,31.18-35.41-6.84,7.44-15.15,10.77-24.56,12.16-19.24,2.84-38.89-6.06-49.08-22.65-15.06-24.5-10.73-59.38,9.86-79.49,17.2-16.8,46.6-18.97,66.06-4.88.66.48,1.32.94,2.88,2.05ZM873.98,186.58c-.9-4.46-1.37-8.77-2.66-12.81-5.82-18.24-26.52-23.88-40.08-11.07-11.03,10.43-12.37,33.17-2.55,44.85,5.96,7.08,13.52,10.7,22.85,9.17,9.98-1.64,17.04-7.14,19.87-17.12,1.2-4.25,1.74-8.7,2.57-13.02Z"/><path class="cls-1" d="M412.95,193.04c0,14.44,0,28.24,0,42.04,0,8.42-2.45,10.86-11,10.9-4.33.02-8.66.02-13,0-6.19-.03-8.61-2.39-8.62-8.77-.05-24.16-.03-48.32-.02-72.48,0-23.83.02-47.66.06-71.48.01-6.66,1.84-8.68,8.56-8.72,17.5-.1,35-.36,52.49.1,14.11.37,27.59,3.24,39.01,12.63,10.02,8.24,14.94,19.14,16.33,31.46,1.83,16.22.26,32.03-11,45.18-10.51,12.28-24.17,18.41-40.15,19.06-10.62.43-21.28.08-32.66.08ZM413.21,164.45c9.69,0,18.82.05,27.95-.04,1.63-.02,3.27-.52,4.87-.94,11.76-3.13,19.37-13.3,19.3-25.73-.07-11.23-7.34-21.33-18.72-23.11-10.85-1.7-22.02-1.38-33.39-1.96v51.79Z"/><path class="cls-1" d="M540.9,142.81c16.98-15.83,33.91-18.77,52.12-9.22,12.65,6.63,18.64,18.09,20.83,31.63.95,5.86.97,11.91,1.03,17.88.17,17.66.17,35.33.17,52.99,0,7.49-2.35,9.69-9.93,9.71-4,0-8,.09-12,0-7.97-.19-10.73-3.04-10.73-10.94,0-18.33.08-36.67-.02-55-.05-8.98-2.85-16.68-11.21-21.38-10.1-5.69-22.8-2.43-28.61,7.59-1.09,1.88-1.59,4.36-1.6,6.56-.1,21.17-.03,42.33-.02,63.5,0,5.87-3.1,9.28-8.95,9.52-4.66.19-9.33.2-13.99.03-5.56-.2-8.5-3.3-8.51-8.89-.02-48.67.03-97.33-.02-146,0-4.4,1.74-6.44,6.22-6.34,5.83.14,11.67-.05,17.5.07,5.92.13,7.68,2,7.69,7.89.03,14.67.02,29.33.03,44,0,1.79,0,3.59,0,6.39Z"/><path class="cls-1" d="M748.93,177.44c1.49-14.61-5.39-22.4-19.3-23.21-9.24-.54-17.7,1.88-26.05,5.37-6.67,2.79-10.84.45-11.04-6.8-.39-14.58-.07-17.41,14.48-21.78,13.28-3.99,26.78-4.47,40.3-1.31,17.92,4.18,30.72,20.31,31.44,40.13.48,13.31.25,26.65.34,39.97.05,6.9.53,13.44,6.27,18.69,3.48,3.19,1.46,9.66-3.22,13.44-10.5,8.5-28.72,3.58-32.81-8.2-1.93,1.44-3.72,2.78-5.52,4.1-17.48,12.77-40.51,12.08-54.58-1.33-15.38-14.65-14.1-47.6,4.11-57.34,4.59-2.45,9.8-4.39,14.92-5.06,13.6-1.77,27.2-1.4,40.66,3.34ZM729.42,192.48c-3.97.59-7.71.65-11.1,1.76-5.53,1.81-9.32,5.87-10.32,11.67-1.11,6.43,1.46,11.77,7.53,14.19,4.17,1.66,8.95,2.41,13.47,2.47,15.13.21,21.46-10.66,20.2-24.53-.09-.97-1.8-2.32-2.95-2.57-5.65-1.18-11.37-2.05-16.84-2.99Z"/><path class="cls-1" d="M629.42,157.53c0-20.82-.02-41.64,0-62.46.01-8.35,2.31-10.59,10.64-10.58,3.83,0,7.66,0,11.49.01,6.74.01,9.21,2.44,9.23,9.33.05,16.32.03,32.65.04,48.97.01,21.99.01,43.97.04,65.96,0,5.85,1.52,6.95,7.12,8.92,2.15.75,4.19,3.98,4.79,6.45.8,3.3.42,6.97.08,10.44-.77,7.82-6.32,11.74-17.1,12.4-15.1.92-26.29-10.01-26.36-25.98-.09-21.15-.02-42.31-.02-63.46h.05Z"/><path class="cls-1" d="M175.67,227.49c-19.33,0-38.67-.3-58,.07-25.95.51-54.46-18.28-62.15-48.35-8.43-32.99,7-65.48,38.17-78.9,6.68-2.88,14.41-4.54,21.68-4.62,38.99-.44,78.01.35,116.99-.4,28.96-.55,53.58,19.02,61.7,42.76,12.54,36.66-4.54,75.28-43.2,87.1-5.31,1.62-11.11,2.14-16.7,2.22-19.5.26-39,.1-58.5.1v.02ZM270.77,160.09c-.8-24.18-18.39-40.28-44.04-38.92-21.92,1.16-38.83,16.57-38.3,41.86.48,22.92,20.17,40.42,43.8,39.63,22.08-.74,39.29-19.75,38.54-42.56ZM86.81,162.94c.03,13.72,9.51,23.48,22.84,23.51,13.65.03,24.77-10.73,24.74-23.94-.03-13.4-10.63-23.73-24.31-23.69-13.06.04-23.3,10.65-23.27,24.11Z"/></svg>